<svg version="1.0" xmlns="http://www.w3.org/2000/svg" viewBox="0 0 474 474"><g fill="#FFF" stroke-width="0"><path d="M0 237v237h474V0H0v237zm326.5-102.3c22.9 5.3 40.3 15 55.7 31.1 9.4 9.8 12.8 14.8 18.8 27.5 6.7 14.1 9.2 24.2 9.7 40.2.6 15-.9 25.3-5.8 39.3-10.5 29.8-36.6 54.8-67.4 64.5-16 5-19.3 5.2-101.5 5.2-69.6 0-77.3-.2-85.3-1.8-44.1-9-77.1-41.4-85.1-83.7-3-15.5-1.7-37 3-51.5 6.3-19.4 20.6-39.3 36.8-51.5 7.5-5.6 23-13.5 32.1-16.3 7.2-2.2 16.7-4.1 26.5-5.1 1.9-.2 37.3-.3 78.5-.1 71.8.1 75.4.2 84 2.2z"/><path d="M165.4 204c-18.8 2.8-31.5 17.9-30.2 35.9 1.2 15.7 12.7 28 29.2 31 7.9 1.5 136.6 1.5 145.5.1 12-2 20.7-8 26.2-18.2 3-5.7 3.3-7.1 3.4-14.8 0-7.7-.3-9.2-3.3-15.3-3.9-7.9-9.9-13.2-18.9-16.9l-5.8-2.3-70.5-.1c-38.8-.1-72.8.1-75.6.6z"/></g><path d="M202.3 132.7c19.7.2 51.7.2 71 0 19.4-.1 3.3-.2-35.8-.2-39 0-54.9.1-35.2.2zm-45.5 1c.6.2 1.8.2 2.5 0 .6-.3.1-.5-1.3-.5-1.4 0-1.9.2-1.2.5zm0 208c.6.2 1.8.2 2.5 0 .6-.3.1-.5-1.3-.5-1.4 0-1.9.2-1.2.5zm46 1c19.5.2 51 .2 70 0 19.1-.1 3.2-.2-35.3-.2s-54.1.1-34.7.2z" fill="#CCC"/><path d="M313.3 133.7c.9.2 2.3.2 3 0 .6-.3-.1-.5-1.8-.5-1.6 0-2.2.2-1.2.5zm-161.5 1c.7.3 1.6.2 1.9-.1.4-.3-.2-.6-1.3-.5-1.1 0-1.4.3-.6.6zm170 0c.7.3 1.6.2 1.9-.1.4-.3-.2-.6-1.3-.5-1.1 0-1.4.3-.6.6zm-220.9 23c-1.3 1.6-1.2 1.7.4.4.9-.7 1.7-1.5 1.7-1.7 0-.8-.8-.3-2.1 1.3zm309.2 69.9c0 1.1.3 1.4.6.6.3-.7.2-1.6-.1-1.9-.3-.4-.6.2-.5 1.3zM143.5 261c1 1.1 2 2 2.3 2 .3 0-.3-.9-1.3-2s-2-2-2.3-2c-.3 0 .3.9 1.3 2zM87 303.4c0 .2.8 1 1.8 1.7 1.5 1.3 1.6 1.2.3-.4s-2.1-2.1-2.1-1.3zm297.9 2.3c-1.3 1.6-1.2 1.7.4.4 1.6-1.3 2.1-2.1 1.3-2.1-.2 0-1 .8-1.7 1.7zm-10 10c-1.3 1.6-1.2 1.7.4.4 1.6-1.3 2.1-2.1 1.3-2.1-.2 0-1 .8-1.7 1.7zm-54.1 25c.7.3 1.6.2 1.9-.1.4-.3-.2-.6-1.3-.5-1.1 0-1.4.3-.6.6zm-160 1c.7.3 1.6.2 1.9-.1.4-.3-.2-.6-1.3-.5-1.1 0-1.4.3-.6.6zm152.5 0c.9.2 2.3.2 3 0 .6-.3-.1-.5-1.8-.5-1.6 0-2.2.2-1.2.5z" fill="#999"/><path d="M97.9 160.7c-1.3 1.6-1.2 1.7.4.4 1.6-1.3 2.1-2.1 1.3-2.1-.2 0-1 .8-1.7 1.7zm282.6 4.3c2.7 2.7 5.1 5 5.4 5 .3 0-1.7-2.3-4.4-5-2.7-2.8-5.1-5-5.4-5-.3 0 1.7 2.2 4.4 5zm-290.1 3.2-1.9 2.3 2.3-1.9c2.1-1.8 2.7-2.6 1.9-2.6-.2 0-1.2 1-2.3 2.2zM330 213.5c1.3 1.4 2.6 2.5 2.8 2.5.3 0-.5-1.1-1.8-2.5s-2.6-2.5-2.8-2.5c-.3 0 .5 1.1 1.8 2.5zm-187.1 1.2c-1.3 1.6-1.2 1.7.4.4 1.6-1.3 2.1-2.1 1.3-2.1-.2 0-1 .8-1.7 1.7zM64.2 229c0 1.9.2 2.7.5 1.7.2-.9.2-2.5 0-3.5-.3-.9-.5-.1-.5 1.8zm346.2 9.5c0 5.5.1 7.6.3 4.7.2-2.9.2-7.4 0-10-.2-2.6-.3-.2-.3 5.3zM134.3 237c0 3 .2 4.3.4 2.7.2-1.5.2-3.9 0-5.5-.2-1.5-.4-.2-.4 2.8zm-70 7.5c0 2.2.2 3 .4 1.7.2-1.2.2-3 0-4-.3-.9-.5.1-.4 2.3zm.9 9.5c0 1.4.2 1.9.5 1.2.2-.6.2-1.8 0-2.5-.3-.6-.5-.1-.5 1.3zm264.7 7.7-2.4 2.8 2.8-2.4c2.5-2.3 3.2-3.1 2.4-3.1-.2 0-1.4 1.2-2.8 2.7zm50 49-3.4 3.8 3.8-3.4c2-1.9 3.7-3.6 3.7-3.8 0-.8-.8 0-4.1 3.4z" fill="#666"/><path d="M164.8 133.7c.6.2 1.8.2 2.5 0 .6-.3.1-.5-1.3-.5-1.4 0-1.9.2-1.2.5zm-70.4 30.5-1.9 2.3 2.3-1.9c2.1-1.8 2.7-2.6 1.9-2.6-.2 0-1.2 1-2.3 2.2zm68.4 39.5c.6.2 1.8.2 2.5 0 .6-.3.1-.5-1.3-.5-1.4 0-1.9.2-1.2.5zM340.3 235c0 2.5.2 3.5.4 2.2.2-1.2.2-3.2 0-4.5-.2-1.2-.4-.2-.4 2.3zm-276 1.5c0 2.7.2 3.8.4 2.2.2-1.5.2-3.7 0-5-.2-1.2-.4 0-.4 2.8zm275.9 5.5c0 1.4.2 1.9.5 1.2.2-.6.2-1.8 0-2.5-.3-.6-.5-.1-.5 1.3zM67.1 262.6c0 1.1.3 1.4.6.6.3-.7.2-1.6-.1-1.9-.3-.4-.6.2-.5 1.3zm339 3c0 1.1.3 1.4.6.6.3-.7.2-1.6-.1-1.9-.3-.4-.6.2-.5 1.3zM92 308.3c0 .2 1.5 1.6 3.3 3.3l3.2 2.9-2.9-3.3c-2.8-3-3.6-3.7-3.6-2.9zm215.8 33.4c.7.3 1.6.2 1.9-.1.4-.3-.2-.6-1.3-.5-1.1 0-1.4.3-.6.6z" fill="#333"/><path d="M164.5 133.7c-47.7 3.8-85.1 33.9-96.6 77.9-2 7.6-2.4 11.3-2.4 25.4 0 14.2.3 17.9 2.4 26 4.7 18.4 14.2 35 27.9 48.2 17.4 17 39.5 27.1 65.4 29.8 12.6 1.3 138.7 1.3 151.9 0 47.9-4.8 82.7-34.4 94.6-80.5 1.4-5.4 1.8-10.7 1.7-23.5 0-14.7-.3-17.6-2.7-26.3-4.9-17.8-12.6-31.3-25.5-44.9-17.2-18-40.1-28.8-67.4-31.8-8.7-.9-138.3-1.2-149.3-.3zm151.2 70.8c14.7 4.4 25.3 18.3 25.3 33.4 0 10.5-6.3 22-15.7 28.3-8.5 5.8-9 5.8-88.5 5.8-72 0-72.8 0-79.4-2.2-26.4-8.6-31.5-44-8.8-60.1 9.6-6.8 6-6.5 88-6.6 63.3-.1 74.8.1 79.1 1.4z"/></svg>